<svg id="visual" viewBox="0 0 900 600" width="900" height="600" xmlns="http://www.w3.org/2000/svg" xmlns:xlink="http://www.w3.org/1999/xlink" version="1.1"><path d="M754 600L754.8 585.7C755.7 571.3 757.3 542.7 746.5 514.2C735.7 485.7 712.3 457.3 714.3 428.8C716.3 400.3 743.7 371.7 746.3 343C749 314.3 727 285.7 717.7 257C708.3 228.3 711.7 199.7 717.7 171.2C723.7 142.7 732.3 114.3 739.2 85.8C746 57.3 751 28.7 753.5 14.3L756 0L900 0L900 14.3C900 28.7 900 57.3 900 85.8C900 114.3 900 142.7 900 171.2C900 199.7 900 228.3 900 257C900 285.7 900 314.3 900 343C900 371.7 900 400.3 900 428.8C900 457.3 900 485.7 900 514.2C900 542.7 900 571.3 900 585.7L900 600Z" fill="#070F1E" stroke-linecap="round" stroke-linejoin="miter"></path></svg>